# xmcd CD database file generated by OrangeCD 6.4
#
# Track frame offsets:
#	150
#	52696
#	81176
#	96466
#	126963
#	156187
#	173880
#	198154
#	215938
#	240132
#	252686
#	297033
#	315531
#	332127
#
# Disc length: 4794 seconds
#
# Revision: 0
# Processed by: cddbd v1.5.2PL0 Copyright (c) Steve Scherf et al.
# Submitted via: OrangeCD 6.4
#
DISCID=c712b80e
DTITLE=The Rolling Stones - The REAL Alternate Album - Some Girls
DYEAR=2010
DGENRE=
TTITLE0=Miss You
TTITLE1=When The Whip Comes Down
TTITLE2=Before They Make Me Run
TTITLE3=Just My Imagination
TTITLE4=Some Girls
TTITLE5=Lies
TTITLE6=Far Away Eyes
TTITLE7=Respectable
TTITLE8=Beast Of Burden
TTITLE9=Shattered
TTITLE10=Everything Is Turning To Gold
TTITLE11=Fidji Jim
TTITLE12=Claudine
TTITLE13=No Spare Parts
EXTD=
EXTT0=
EXTT1=
EXTT2=
EXTT3=
EXTT4=
EXTT5=
EXTT6=
EXTT7=
EXTT8=
EXTT9=
EXTT10=
EXTT11=
EXTT12=
EXTT13=
PLAYORDER=
